<svg width="188" height="49" viewBox="0 0 188 49" fill="none" xmlns="http://www.w3.org/2000/svg">
<path d="M46.2961 24.5C46.2961 37.5123 36.1231 48 23.648 48C11.1729 48 1 37.5123 1 24.5C1 11.4877 11.1729 1 23.648 1C36.1231 1 46.2961 11.4877 46.2961 24.5Z" stroke="#9800E3" stroke-width="2"/>
<path d="M11.745 24.675H13.635C14.335 24.675 14.95 24.58 15.48 24.39C16.01 24.19 16.425 23.9 16.725 23.52C17.025 23.14 17.175 22.685 17.175 22.155C17.175 21.555 17.025 21.06 16.725 20.67C16.425 20.28 16.01 19.99 15.48 19.8C14.95 19.6 14.335 19.5 13.635 19.5H10.14V30H13.86C14.64 30 15.325 29.895 15.915 29.685C16.505 29.475 16.96 29.15 17.28 28.71C17.61 28.27 17.775 27.705 17.775 27.015C17.775 26.495 17.665 26.05 17.445 25.68C17.235 25.31 16.945 25.01 16.575 24.78C16.205 24.54 15.785 24.365 15.315 24.255C14.855 24.145 14.37 24.09 13.86 24.09H11.745V25.26H13.665C13.935 25.26 14.185 25.29 14.415 25.35C14.645 25.4 14.845 25.49 15.015 25.62C15.195 25.74 15.33 25.895 15.42 26.085C15.52 26.265 15.57 26.485 15.57 26.745C15.57 27.105 15.485 27.4 15.315 27.63C15.155 27.86 14.93 28.03 14.64 28.14C14.35 28.24 14.025 28.29 13.665 28.29H12.285V21.21H13.44C13.91 21.21 14.28 21.315 14.55 21.525C14.83 21.735 14.97 22.04 14.97 22.44C14.97 22.7 14.905 22.925 14.775 23.115C14.655 23.305 14.48 23.45 14.25 23.55C14.02 23.65 13.75 23.7 13.44 23.7H11.745V24.675ZM20.9829 30H26.2779V28.185H20.9829V30ZM20.9829 21.315H26.2779V19.5H20.9829V21.315ZM20.9829 25.32H25.9779V23.535H20.9829V25.32ZM19.6029 19.5V30H21.6729V19.5H19.6029ZM29.157 25.32H32.202C32.562 25.32 32.877 25.375 33.147 25.485C33.417 25.585 33.622 25.74 33.762 25.95C33.912 26.16 33.987 26.43 33.987 26.76C33.987 27.08 33.912 27.345 33.762 27.555C33.622 27.765 33.417 27.925 33.147 28.035C32.877 28.135 32.562 28.185 32.202 28.185H29.157V30H32.592C33.272 30 33.877 29.865 34.407 29.595C34.947 29.325 35.372 28.945 35.682 28.455C36.002 27.965 36.162 27.4 36.162 26.76C36.162 26.11 36.002 25.545 35.682 25.065C35.372 24.575 34.947 24.2 34.407 23.94C33.877 23.67 33.272 23.535 32.592 23.535H29.157V25.32ZM28.452 19.5V30H30.627V21.315H35.367V19.5H28.452Z" fill="#9800E3"/>
<path d="M55.865 24.75C55.865 24.05 56.02 23.445 56.33 22.935C56.65 22.425 57.065 22.035 57.575 21.765C58.085 21.485 58.64 21.345 59.24 21.345C59.74 21.345 60.185 21.41 60.575 21.54C60.965 21.67 61.315 21.845 61.625 22.065C61.945 22.285 62.22 22.525 62.45 22.785V20.37C62.02 20.03 61.55 19.765 61.04 19.575C60.54 19.385 59.905 19.29 59.135 19.29C58.335 19.29 57.59 19.42 56.9 19.68C56.22 19.94 55.625 20.315 55.115 20.805C54.615 21.295 54.225 21.875 53.945 22.545C53.675 23.205 53.54 23.94 53.54 24.75C53.54 25.56 53.675 26.3 53.945 26.97C54.225 27.63 54.615 28.205 55.115 28.695C55.625 29.185 56.22 29.56 56.9 29.82C57.59 30.08 58.335 30.21 59.135 30.21C59.905 30.21 60.54 30.115 61.04 29.925C61.55 29.735 62.02 29.47 62.45 29.13V26.715C62.22 26.975 61.945 27.215 61.625 27.435C61.315 27.655 60.965 27.83 60.575 27.96C60.185 28.09 59.74 28.155 59.24 28.155C58.64 28.155 58.085 28.02 57.575 27.75C57.065 27.47 56.65 27.075 56.33 26.565C56.02 26.045 55.865 25.44 55.865 24.75ZM63.0802 21.435H65.9002V30H68.0452V21.435H70.8802V19.5H63.0802V21.435ZM80.5331 19.5H78.2681L75.3581 25.965L76.3631 26.01L73.7531 19.5H71.3231L74.7581 26.835L73.3631 30H75.5981L80.5331 19.5ZM85.3027 23.025L87.7177 29.55H90.1627L85.3027 18.975L80.4427 29.55H82.8877L85.3027 23.025ZM88.9927 30V31.65H91.0777V28.125H79.5277V31.65H81.6127V30H88.9927ZM102.365 21.765L102.44 18.975L92.9748 27.735L92.8998 30.525L102.365 21.765ZM94.9698 19.5H92.8998V30.525L94.9698 28.29V19.5ZM102.44 18.975L100.37 21.27V30H102.44V18.975ZM109.356 25.11H107.091L103.671 30H106.206L109.356 25.11ZM111.741 19.5H109.596V30H111.741V19.5ZM110.436 21.33V19.5H108.216C107.396 19.5 106.691 19.64 106.101 19.92C105.521 20.2 105.076 20.59 104.766 21.09C104.456 21.59 104.301 22.175 104.301 22.845C104.301 23.505 104.456 24.09 104.766 24.6C105.076 25.1 105.521 25.49 106.101 25.77C106.691 26.05 107.396 26.19 108.216 26.19H110.436V24.48H108.351C107.981 24.48 107.656 24.42 107.376 24.3C107.096 24.17 106.881 23.99 106.731 23.76C106.581 23.52 106.506 23.235 106.506 22.905C106.506 22.575 106.581 22.295 106.731 22.065C106.881 21.825 107.096 21.645 107.376 21.525C107.656 21.395 107.981 21.33 108.351 21.33H110.436Z" fill="white"/>
<path d="M129.52 30H134.815V28.185H129.52V30ZM129.52 21.315H134.815V19.5H129.52V21.315ZM129.52 25.32H134.515V23.535H129.52V25.32ZM128.14 19.5V30H130.21V19.5H128.14ZM145.614 19.5H137.469V25.83C137.469 26.18 137.434 26.5 137.364 26.79C137.294 27.08 137.194 27.33 137.064 27.54C136.934 27.75 136.774 27.91 136.584 28.02C136.394 28.13 136.179 28.185 135.939 28.185V30C136.789 30 137.484 29.835 138.024 29.505C138.564 29.175 138.959 28.7 139.209 28.08C139.469 27.45 139.599 26.695 139.599 25.815V21.435H143.439V30H145.614V19.5ZM147.959 19.5V30H150.104V19.5H147.959ZM149.264 25.125H151.349C151.729 25.125 152.054 25.185 152.324 25.305C152.604 25.415 152.819 25.585 152.969 25.815C153.119 26.045 153.194 26.325 153.194 26.655C153.194 26.985 153.119 27.265 152.969 27.495C152.819 27.725 152.604 27.9 152.324 28.02C152.054 28.13 151.729 28.185 151.349 28.185H149.264V30H151.349C152.179 30 152.884 29.865 153.464 29.595C154.054 29.325 154.504 28.94 154.814 28.44C155.124 27.93 155.279 27.335 155.279 26.655C155.279 25.965 155.124 25.37 154.814 24.87C154.504 24.37 154.054 23.985 153.464 23.715C152.884 23.445 152.179 23.31 151.349 23.31H149.264V25.125ZM160.344 26.415H163.599V24.51H160.854L160.344 26.415ZM162.684 19.5V30H164.889V19.5H162.684ZM159.069 19.5H156.939V22.74C156.939 23.41 157.069 24.025 157.329 24.585C157.589 25.145 157.974 25.59 158.484 25.92C158.994 26.25 159.614 26.415 160.344 26.415L160.854 24.51C160.494 24.51 160.179 24.43 159.909 24.27C159.639 24.11 159.429 23.88 159.279 23.58C159.139 23.28 159.069 22.925 159.069 22.515V19.5ZM176.687 21.765L176.762 18.975L167.297 27.735L167.222 30.525L176.687 21.765ZM169.292 19.5H167.222V30.525L169.292 28.29V19.5ZM176.762 18.975L174.692 21.27V30H176.762V18.975ZM179.043 19.5V30H181.248V19.5H179.043ZM184.983 19.5L180.618 24.48L185.148 30H187.758L183.183 24.42L187.533 19.5H184.983Z" fill="url(#paint0_linear_204_20)"/>
<path d="M116.54 23.76H120.6C121.08 23.76 121.5 23.8333 121.86 23.98C122.22 24.1133 122.493 24.32 122.68 24.6C122.88 24.88 122.98 25.24 122.98 25.68C122.98 26.1067 122.88 26.46 122.68 26.74C122.493 27.02 122.22 27.2333 121.86 27.38C121.5 27.5133 121.08 27.58 120.6 27.58H116.54V30H121.12C122.027 30 122.833 29.82 123.54 29.46C124.26 29.1 124.827 28.5933 125.24 27.94C125.667 27.2867 125.88 26.5333 125.88 25.68C125.88 24.8133 125.667 24.06 125.24 23.42C124.827 22.7667 124.26 22.2667 123.54 21.92C122.833 21.56 122.027 21.38 121.12 21.38H116.54V23.76ZM115.6 16V30H118.5V18.42H124.82V16H115.6Z" fill="#9800E3"/>
<defs>
<linearGradient id="paint0_linear_204_20" x1="124.51" y1="14" x2="188.186" y2="40.5824" gradientUnits="userSpaceOnUse">
<stop stop-color="#9800E3"/>
<stop offset="1" stop-color="#3605FD"/>
</linearGradient>
</defs>
</svg>
