<svg width="74" height="73" viewBox="0 0 74 73" fill="none" xmlns="http://www.w3.org/2000/svg">
<circle cx="37" cy="36" r="36" fill="#FAFAFA"/>
<path d="M73 36.4478C73 56.0109 56.8965 71.8955 37 71.8955C17.1035 71.8955 1 56.0109 1 36.4478C1 16.8846 17.1035 1 37 1C56.8965 1 73 16.8846 73 36.4478Z" stroke="#9800E3" stroke-width="2"/>
<path d="M17.758 35.77H21.034C22.2473 35.77 23.3133 35.6053 24.232 35.276C25.1507 34.9293 25.87 34.4267 26.39 33.768C26.91 33.1093 27.17 32.3207 27.17 31.402C27.17 30.362 26.91 29.504 26.39 28.828C25.87 28.152 25.1507 27.6493 24.232 27.32C23.3133 26.9733 22.2473 26.8 21.034 26.8H14.976V45H21.424C22.776 45 23.9633 44.818 24.986 44.454C26.0087 44.09 26.7973 43.5267 27.352 42.764C27.924 42.0013 28.21 41.022 28.21 39.826C28.21 38.9247 28.0193 38.1533 27.638 37.512C27.274 36.8707 26.7713 36.3507 26.13 35.952C25.4887 35.536 24.7607 35.2327 23.946 35.042C23.1487 34.8513 22.308 34.756 21.424 34.756H17.758V36.784H21.086C21.554 36.784 21.9873 36.836 22.386 36.94C22.7847 37.0267 23.1313 37.1827 23.426 37.408C23.738 37.616 23.972 37.8847 24.128 38.214C24.3013 38.526 24.388 38.9073 24.388 39.358C24.388 39.982 24.2407 40.4933 23.946 40.892C23.6687 41.2907 23.2787 41.5853 22.776 41.776C22.2733 41.9493 21.71 42.036 21.086 42.036H18.694V29.764H20.696C21.5107 29.764 22.152 29.946 22.62 30.31C23.1053 30.674 23.348 31.2027 23.348 31.896C23.348 32.3467 23.2353 32.7367 23.01 33.066C22.802 33.3953 22.4987 33.6467 22.1 33.82C21.7013 33.9933 21.2333 34.08 20.696 34.08H17.758V35.77ZM33.7703 45H42.9483V41.854H33.7703V45ZM33.7703 29.946H42.9483V26.8H33.7703V29.946ZM33.7703 36.888H42.4283V33.794H33.7703V36.888ZM31.3783 26.8V45H34.9663V26.8H31.3783ZM47.9387 36.888H53.2167C53.8407 36.888 54.3867 36.9833 54.8547 37.174C55.3227 37.3473 55.6781 37.616 55.9207 37.98C56.1807 38.344 56.3107 38.812 56.3107 39.384C56.3107 39.9387 56.1807 40.398 55.9207 40.762C55.6781 41.126 55.3227 41.4033 54.8547 41.594C54.3867 41.7673 53.8407 41.854 53.2167 41.854H47.9387V45H53.8927C55.0714 45 56.1201 44.766 57.0387 44.298C57.9747 43.83 58.7114 43.1713 59.2487 42.322C59.8034 41.4727 60.0807 40.4933 60.0807 39.384C60.0807 38.2573 59.8034 37.278 59.2487 36.446C58.7114 35.5967 57.9747 34.9467 57.0387 34.496C56.1201 34.028 55.0714 33.794 53.8927 33.794H47.9387V36.888ZM46.7167 26.8V45H50.4867V29.946H58.7027V26.8H46.7167Z" fill="#9800E3"/>
</svg>
